<mxfile host="app.diagrams.net" modified="2021-05-02T11:30:40.287Z" agent="5.0 (Windows NT 10.0; Win64; x64) AppleWebKit/537.36 (KHTML, like Gecko) Chrome/87.0.4280.141 Safari/537.36 OPR/73.0.3856.438" etag="PxKHcUHMYCYNthCn3ce2" version="14.6.6" type="github">
  <diagram id="etdcrKA4KMiVRj0fU9Jy" name="Page-1">
    <mxGraphModel dx="1381" dy="833" grid="1" gridSize="10" guides="1" tooltips="1" connect="1" arrows="1" fold="1" page="1" pageScale="1" pageWidth="827" pageHeight="1169" math="0" shadow="0">
      <root>
        <mxCell id="0" />
        <mxCell id="1" parent="0" />
        <mxCell id="LCuwctLbjuXMNYzQ-PP1-3" style="edgeStyle=orthogonalEdgeStyle;rounded=0;orthogonalLoop=1;jettySize=auto;html=1;" edge="1" parent="1" source="LCuwctLbjuXMNYzQ-PP1-1" target="LCuwctLbjuXMNYzQ-PP1-2">
          <mxGeometry relative="1" as="geometry" />
        </mxCell>
        <mxCell id="LCuwctLbjuXMNYzQ-PP1-1" value="start" style="ellipse;whiteSpace=wrap;html=1;" vertex="1" parent="1">
          <mxGeometry x="300" y="20" width="120" height="80" as="geometry" />
        </mxCell>
        <mxCell id="LCuwctLbjuXMNYzQ-PP1-7" style="edgeStyle=orthogonalEdgeStyle;rounded=0;orthogonalLoop=1;jettySize=auto;html=1;entryX=0.5;entryY=0;entryDx=0;entryDy=0;" edge="1" parent="1" source="LCuwctLbjuXMNYzQ-PP1-2" target="LCuwctLbjuXMNYzQ-PP1-4">
          <mxGeometry relative="1" as="geometry" />
        </mxCell>
        <mxCell id="LCuwctLbjuXMNYzQ-PP1-8" style="edgeStyle=orthogonalEdgeStyle;rounded=0;orthogonalLoop=1;jettySize=auto;html=1;entryX=0.5;entryY=0;entryDx=0;entryDy=0;" edge="1" parent="1" source="LCuwctLbjuXMNYzQ-PP1-2" target="LCuwctLbjuXMNYzQ-PP1-4">
          <mxGeometry relative="1" as="geometry" />
        </mxCell>
        <mxCell id="LCuwctLbjuXMNYzQ-PP1-2" value="input: a, b" style="shape=parallelogram;perimeter=parallelogramPerimeter;whiteSpace=wrap;html=1;fixedSize=1;" vertex="1" parent="1">
          <mxGeometry x="300" y="140" width="120" height="60" as="geometry" />
        </mxCell>
        <mxCell id="LCuwctLbjuXMNYzQ-PP1-6" value="yes" style="edgeStyle=orthogonalEdgeStyle;rounded=0;orthogonalLoop=1;jettySize=auto;html=1;" edge="1" parent="1" source="LCuwctLbjuXMNYzQ-PP1-4" target="LCuwctLbjuXMNYzQ-PP1-21">
          <mxGeometry relative="1" as="geometry">
            <mxPoint x="230" y="320" as="targetPoint" />
          </mxGeometry>
        </mxCell>
        <mxCell id="LCuwctLbjuXMNYzQ-PP1-12" value="no" style="edgeStyle=orthogonalEdgeStyle;rounded=0;orthogonalLoop=1;jettySize=auto;html=1;entryX=0.5;entryY=0;entryDx=0;entryDy=0;" edge="1" parent="1" source="LCuwctLbjuXMNYzQ-PP1-4" target="LCuwctLbjuXMNYzQ-PP1-10">
          <mxGeometry relative="1" as="geometry" />
        </mxCell>
        <mxCell id="LCuwctLbjuXMNYzQ-PP1-4" value="a = b" style="rhombus;whiteSpace=wrap;html=1;" vertex="1" parent="1">
          <mxGeometry x="320" y="280" width="80" height="80" as="geometry" />
        </mxCell>
        <mxCell id="LCuwctLbjuXMNYzQ-PP1-14" value="yes" style="edgeStyle=orthogonalEdgeStyle;rounded=0;orthogonalLoop=1;jettySize=auto;html=1;" edge="1" parent="1" source="LCuwctLbjuXMNYzQ-PP1-10" target="LCuwctLbjuXMNYzQ-PP1-13">
          <mxGeometry relative="1" as="geometry" />
        </mxCell>
        <mxCell id="LCuwctLbjuXMNYzQ-PP1-20" value="no" style="edgeStyle=orthogonalEdgeStyle;rounded=0;orthogonalLoop=1;jettySize=auto;html=1;entryX=0.5;entryY=0;entryDx=0;entryDy=0;" edge="1" parent="1" source="LCuwctLbjuXMNYzQ-PP1-10" target="LCuwctLbjuXMNYzQ-PP1-17">
          <mxGeometry relative="1" as="geometry" />
        </mxCell>
        <mxCell id="LCuwctLbjuXMNYzQ-PP1-10" value="a &amp;gt; b" style="rhombus;whiteSpace=wrap;html=1;" vertex="1" parent="1">
          <mxGeometry x="480" y="340" width="80" height="80" as="geometry" />
        </mxCell>
        <mxCell id="LCuwctLbjuXMNYzQ-PP1-23" style="edgeStyle=orthogonalEdgeStyle;rounded=0;orthogonalLoop=1;jettySize=auto;html=1;entryX=0.5;entryY=0;entryDx=0;entryDy=0;" edge="1" parent="1" source="LCuwctLbjuXMNYzQ-PP1-13" target="LCuwctLbjuXMNYzQ-PP1-22">
          <mxGeometry relative="1" as="geometry" />
        </mxCell>
        <mxCell id="LCuwctLbjuXMNYzQ-PP1-13" value="ax = a - b" style="rounded=0;whiteSpace=wrap;html=1;" vertex="1" parent="1">
          <mxGeometry x="640" y="350" width="120" height="60" as="geometry" />
        </mxCell>
        <mxCell id="LCuwctLbjuXMNYzQ-PP1-25" style="edgeStyle=orthogonalEdgeStyle;rounded=0;orthogonalLoop=1;jettySize=auto;html=1;" edge="1" parent="1" source="LCuwctLbjuXMNYzQ-PP1-17" target="LCuwctLbjuXMNYzQ-PP1-24">
          <mxGeometry relative="1" as="geometry" />
        </mxCell>
        <mxCell id="LCuwctLbjuXMNYzQ-PP1-17" value="bx = b - a" style="rounded=0;whiteSpace=wrap;html=1;" vertex="1" parent="1">
          <mxGeometry x="460" y="460" width="120" height="60" as="geometry" />
        </mxCell>
        <mxCell id="LCuwctLbjuXMNYzQ-PP1-28" style="edgeStyle=orthogonalEdgeStyle;rounded=0;orthogonalLoop=1;jettySize=auto;html=1;" edge="1" parent="1" source="LCuwctLbjuXMNYzQ-PP1-21" target="LCuwctLbjuXMNYzQ-PP1-26">
          <mxGeometry relative="1" as="geometry" />
        </mxCell>
        <mxCell id="LCuwctLbjuXMNYzQ-PP1-21" value="display a or b" style="shape=parallelogram;perimeter=parallelogramPerimeter;whiteSpace=wrap;html=1;fixedSize=1;" vertex="1" parent="1">
          <mxGeometry x="100" y="280" width="140" height="80" as="geometry" />
        </mxCell>
        <mxCell id="LCuwctLbjuXMNYzQ-PP1-22" value="a = ax" style="rounded=0;whiteSpace=wrap;html=1;" vertex="1" parent="1">
          <mxGeometry x="640" y="460" width="120" height="60" as="geometry" />
        </mxCell>
        <mxCell id="LCuwctLbjuXMNYzQ-PP1-24" value="b = bx" style="rounded=0;whiteSpace=wrap;html=1;" vertex="1" parent="1">
          <mxGeometry x="460" y="560" width="120" height="60" as="geometry" />
        </mxCell>
        <mxCell id="LCuwctLbjuXMNYzQ-PP1-26" value="stop" style="ellipse;whiteSpace=wrap;html=1;" vertex="1" parent="1">
          <mxGeometry x="110" y="400" width="120" height="80" as="geometry" />
        </mxCell>
        <mxCell id="LCuwctLbjuXMNYzQ-PP1-29" value="" style="endArrow=classic;html=1;rounded=0;strokeWidth=1;jumpSize=6;jumpStyle=sharp;exitX=1.033;exitY=0.617;exitDx=0;exitDy=0;exitPerimeter=0;" edge="1" parent="1" source="LCuwctLbjuXMNYzQ-PP1-22">
          <mxGeometry width="50" height="50" relative="1" as="geometry">
            <mxPoint x="780" y="500" as="sourcePoint" />
            <mxPoint x="360" y="260" as="targetPoint" />
            <Array as="points">
              <mxPoint x="780" y="497" />
              <mxPoint x="780" y="260" />
            </Array>
          </mxGeometry>
        </mxCell>
        <mxCell id="LCuwctLbjuXMNYzQ-PP1-31" value="" style="endArrow=classic;html=1;strokeWidth=1;exitX=1;exitY=0.5;exitDx=0;exitDy=0;rounded=0;" edge="1" parent="1" source="LCuwctLbjuXMNYzQ-PP1-24">
          <mxGeometry width="50" height="50" relative="1" as="geometry">
            <mxPoint x="600" y="620" as="sourcePoint" />
            <mxPoint x="360" y="220" as="targetPoint" />
            <Array as="points">
              <mxPoint x="800" y="590" />
              <mxPoint x="800" y="220" />
            </Array>
          </mxGeometry>
        </mxCell>
      </root>
    </mxGraphModel>
  </diagram>
</mxfile>
